<?xml version="1.0" encoding="utf-8"?>
<!-- Generator: Adobe Illustrator 14.0.0, SVG Export Plug-In . SVG Version: 6.00 Build 43363)  -->
<!DOCTYPE svg PUBLIC "-//W3C//DTD SVG 1.1//EN" "http://www.w3.org/Graphics/SVG/1.1/DTD/svg11.dtd">
<svg version="1.1" id="图层_1" xmlns="http://www.w3.org/2000/svg" xmlns:xlink="http://www.w3.org/1999/xlink" x="0px" y="0px"
	 width="1000px" height="1000px" viewBox="0 0 1000 1000" enable-background="new 0 0 1000 1000" xml:space="preserve">
<rect x="53" y="53" fill="none" width="894" height="894"/>
<path fill="#5C5D5E" d="M751.438,716.516c66.516-24.827,162.387-70.717,182.303-199.928l1.583-234.822
	C928.721,156.32,797.709,79.028,709.313,79.028H298.326c-124.846,0-218.698,84.822-218.698,209.64l0.818,228.875
	c19.671,136.223,148.418,199.736,225.737,207.703l55.875,6.493l22.809,0.764c1.228,0,219.08,143.562,301.092,169.972
	c12.441,3.983,11.077-2.783,16.588-4.692l19.426-47.309l12.004-39.614l14.623-78.848L751.438,716.516z M848.346,500
	c0,68.316-23.736,125.883-138.433,152.456c-12.932,3.056-6.493,1.691-20.462,4.747c-32.849,32.794-17.733,156.002-56.748,130.902
	c-125.255-80.647-220.745-136.305-234.877-139.087l-30.911-0.71c-103.129,0-189.069-65.369-198.673-128.256l1.719-234.85
	c15.77-95.135,76.01-121.354,157.176-130.957h346.381c61.06,5.647,162.278,40.842,172.373,129.184L848.346,500z"/>
</svg>
