<?xml version="1.0" encoding="utf-8"?>
<!-- Generator: Adobe Illustrator 14.0.0, SVG Export Plug-In . SVG Version: 6.00 Build 43363)  -->
<!DOCTYPE svg PUBLIC "-//W3C//DTD SVG 1.1//EN" "http://www.w3.org/Graphics/SVG/1.1/DTD/svg11.dtd">
<svg version="1.1" id="图层_1" xmlns="http://www.w3.org/2000/svg" xmlns:xlink="http://www.w3.org/1999/xlink" x="0px" y="0px"
	 width="1000px" height="1000px" viewBox="0 0 1000 1000" enable-background="new 0 0 1000 1000" xml:space="preserve">
<path fill="#30007F" d="M608.791,384.923h98.588V111.08H218.078v100.763v269.735c-44.16-22.542-189.717,13.437-173.199,126.267
	c11.587,79.693,110.074,88.147,176.776,56.278c92.907-44.366,97.939-158.719,97.939-158.719V211.842h289.197V384.923z"/>
<polygon fill="#30007F" points="602.594,810.774 820.826,666.212 602.594,526.543 "/>
<path fill="#30007F" d="M873.307,422.253H479.048c-45.905,0-83.116,37.211-83.116,83.151v325.088
	c0,45.939,37.211,83.186,83.116,83.186h394.258c45.902,0,83.115-37.246,83.115-83.186V505.404
	C956.422,459.464,919.209,422.253,873.307,422.253z M887.17,759.7c0,45.905-37.211,83.115-83.082,83.115H552.066
	c-45.906,0-83.116-37.21-83.116-83.115V577.788c0-45.938,37.209-83.15,83.116-83.15h252.021c45.871,0,83.082,37.212,83.082,83.15
	V759.7z"/>
</svg>
