<?xml version="1.0" encoding="utf-8"?>
<!-- Generator: Adobe Illustrator 14.0.0, SVG Export Plug-In . SVG Version: 6.00 Build 43363)  -->
<!DOCTYPE svg PUBLIC "-//W3C//DTD SVG 1.1//EN" "http://www.w3.org/Graphics/SVG/1.1/DTD/svg11.dtd">
<svg version="1.1" id="图层_1" xmlns="http://www.w3.org/2000/svg" xmlns:xlink="http://www.w3.org/1999/xlink" x="0px" y="0px"
	 width="1000px" height="1000px" viewBox="0 0 1000 1000" enable-background="new 0 0 1000 1000" xml:space="preserve">
<path fill-rule="evenodd" clip-rule="evenodd" fill="#0002BF" d="M725.007,822.306c-88.178,0-159.633-56.537-159.633-126.187
	c0-69.696,71.455-126.233,159.633-126.233c46.417,0,87.894,15.964,117.064,41.049V305.399H451.375v334.469
	c0,0,15.488,182.438-164.217,182.438c-88.155,0-159.633-56.537-159.633-126.187c0-69.696,71.478-126.233,159.633-126.233
	c46.44,0,87.917,15.964,117.016,41.049V160.97h485.028v478.898C889.201,639.868,900.176,822.306,725.007,822.306L725.007,822.306z"
	/>
</svg>
