<?xml version="1.0" encoding="utf-8"?>
<!-- Generator: Adobe Illustrator 14.0.0, SVG Export Plug-In . SVG Version: 6.00 Build 43363)  -->
<!DOCTYPE svg PUBLIC "-//W3C//DTD SVG 1.1//EN" "http://www.w3.org/Graphics/SVG/1.1/DTD/svg11.dtd">
<svg version="1.1" id="图层_1" xmlns="http://www.w3.org/2000/svg" xmlns:xlink="http://www.w3.org/1999/xlink" x="0px" y="0px"
	 width="1000px" height="1000px" viewBox="0 0 1000 1000" enable-background="new 0 0 1000 1000" xml:space="preserve">
<path fill="#C5C5C5" d="M429.521,728.105c-23.202,23.203-60.838,23.203-84.039,0l-168.08-168.08
	c-23.203-23.203-23.203-60.838,0-84.033c23.225-23.202,60.838-23.202,84.039,0l168.08,168.072
	C452.725,667.268,452.725,704.889,429.521,728.105L429.521,728.105z M821.705,335.929L429.521,728.105
	c-23.202,23.203-60.838,23.203-84.039,0c-23.203-23.217-23.203-60.838,0-84.041l392.184-392.175
	c23.202-23.195,60.837-23.195,84.039,0C844.908,275.091,844.908,312.734,821.705,335.929L821.705,335.929z"/>
</svg>
