<?xml version="1.0" encoding="utf-8"?>
<!-- Generator: Adobe Illustrator 14.0.0, SVG Export Plug-In . SVG Version: 6.00 Build 43363)  -->
<!DOCTYPE svg PUBLIC "-//W3C//DTD SVG 1.1//EN" "http://www.w3.org/Graphics/SVG/1.1/DTD/svg11.dtd">
<svg version="1.1" id="图层_1" xmlns="http://www.w3.org/2000/svg" xmlns:xlink="http://www.w3.org/1999/xlink" x="0px" y="0px"
	 width="1000px" height="1000px" viewBox="0 0 1000 1000" enable-background="new 0 0 1000 1000" xml:space="preserve">
<g>
	<path fill="#00205F" d="M305.765,355.73c-42.08-0.418-76.512,33.348-76.874,75.371c-0.418,42.061,33.348,76.436,75.428,76.854
		c42.023,0.419,76.456-33.348,76.874-75.428C381.555,390.505,347.788,356.092,305.765,355.73z"/>
	<path fill="#00205F" d="M950.888,209.44c0.533-54.198-41.318-98.522-95.535-98.998l-590.335-1.503
		c-54.141-0.533-98.522,43.012-98.998,97.21v17.105l-16.189-0.042c-54.16-0.533-98.503,42.974-98.979,97.191v464.21
		c-0.532,54.217,42.974,98.503,97.172,99.036l588.662-1.713c47.558,0.468,86.229-33.014,95.331-77.849l21.549-0.071
		c54.217,0.495,96.829-42.992,97.361-97.172L950.888,209.44z M558.511,501.868c-85.567-0.837-142.6,169.86-177.793,169.557
		c-35.27-0.343-64.565-96.335-129.949-108.7c-46.969-8.865-96.81,79.937-121.141,130.653l1.427-320.203
		c0.361-38.37,31.674-69.093,69.987-68.731l483.062,0.057c38.313,0.361,69.093,31.674,68.713,70.044l1.141,332.796
		C717.09,634.024,630.229,502.516,558.511,501.868z M834.041,726.479l-0.033-402.784c0.533-54.16-41.318-98.503-95.535-98.979
		l-485.581-1.24c11.243-23.67,35.463-39.943,63.374-39.68l484.717,0.133c38.313,0.343,69.055,31.674,68.675,70.063l1.293,412.371
		C870.699,692.601,855.654,714.96,834.041,726.479z"/>
</g>
</svg>
